<?xml version="1.0" encoding="UTF-8"?>
<svg xmlns="http://www.w3.org/2000/svg" xmlns:xlink="http://www.w3.org/1999/xlink" width="px" height="60px" viewBox="0 0 52 59" version="1.1">
<g id="surface1">
<path style=" stroke:none;fill-rule:nonzero;fill:rgb(91.372549%,79.215686%,19.607843%);fill-opacity:1;" d="M 4.355469 52.820312 L 0 0.0976562 L 52 0.203125 L 47.394531 52.820312 L 26.195312 58.902344 Z M 4.355469 52.820312 "/>
<path style=" stroke:none;fill-rule:nonzero;fill:rgb(100%,87.058824%,14.509804%);fill-opacity:1;" d="M 26.195312 53.808594 L 26.195312 5.121094 L 47.609375 5.191406 L 43.792969 48.753906 Z M 26.195312 53.808594 "/>
<path style=" stroke:none;fill-rule:nonzero;fill:rgb(100%,100%,100%);fill-opacity:1;" d="M 23.902344 10.902344 L 18.242188 10.902344 L 18.242188 43.308594 L 13.839844 42.476562 L 13.839844 38.113281 L 8.597656 37.285156 L 8.597656 47.046875 L 23.902344 50.996094 Z M 28.148438 10.902344 L 43.824219 10.902344 L 42.773438 17.113281 L 34.132812 17.113281 L 34.132812 27.304688 L 42.773438 27.304688 L 41.726562 47.878906 L 28.148438 50.996094 L 28.148438 44.554688 L 37.324219 41.4375 L 37.851562 32.921875 L 28.148438 34.3125 Z M 28.148438 10.902344 "/>
</g>
</svg>
