<?xml version="1.0" encoding="UTF-8"?>
<svg xmlns="http://www.w3.org/2000/svg" xmlns:xlink="http://www.w3.org/1999/xlink" width="px" height="60px" viewBox="0 0 62 60" version="1.1">
<g id="surface1">
<path style=" stroke:none;fill-rule:nonzero;fill:rgb(46.27451%,29.019608%,73.72549%);fill-opacity:1;" d="M 42.960938 41.738281 C 45.246094 41.496094 46.984375 39.492188 46.902344 37.089844 C 46.824219 34.6875 44.851562 32.765625 42.484375 32.765625 L 42.328125 32.765625 C 39.882812 32.84375 37.988281 34.925781 38.066406 37.410156 C 38.148438 38.613281 38.621094 39.652344 39.328125 40.375 C 36.648438 45.742188 32.542969 49.667969 26.390625 52.949219 C 22.210938 55.195312 17.871094 55.996094 13.53125 55.433594 C 9.980469 54.953125 7.21875 53.351562 5.484375 50.707031 C 2.957031 46.78125 2.722656 42.539062 4.851562 38.292969 C 6.351562 35.25 8.71875 33.003906 10.21875 31.882812 C 9.902344 30.84375 9.429688 29.082031 9.191406 27.796875 C -2.25 36.210938 -1.066406 47.585938 2.40625 52.949219 C 5.007812 56.957031 10.296875 59.441406 16.132812 59.441406 C 17.710938 59.441406 19.289062 59.28125 20.867188 58.878906 C 30.96875 56.875 38.621094 50.789062 42.960938 41.738281 Z M 56.84375 31.804688 C 50.847656 24.675781 42.011719 20.75 31.914062 20.75 L 30.652344 20.75 C 29.941406 19.308594 28.441406 18.347656 26.785156 18.347656 L 26.628906 18.347656 C 24.183594 18.425781 22.289062 20.507812 22.367188 22.992188 C 22.445312 25.394531 24.417969 27.316406 26.785156 27.316406 L 26.941406 27.316406 C 28.679688 27.238281 30.179688 26.117188 30.808594 24.59375 L 32.230469 24.59375 C 38.226562 24.59375 43.90625 26.355469 49.035156 29.800781 C 52.980469 32.445312 55.820312 35.890625 57.398438 40.054688 C 58.738281 43.417969 58.660156 46.703125 57.238281 49.507812 C 55.03125 53.753906 51.324219 56.074219 46.429688 56.074219 C 43.273438 56.074219 40.277344 55.113281 38.699219 54.394531 C 37.832031 55.195312 36.253906 56.476562 35.148438 57.277344 C 38.542969 58.878906 42.011719 59.761719 45.328125 59.761719 C 52.902344 59.761719 58.503906 55.515625 60.632812 51.269531 C 62.921875 46.621094 62.761719 38.613281 56.84375 31.804688 Z M 16.765625 43.097656 C 16.84375 45.5 18.816406 47.421875 21.183594 47.421875 L 21.339844 47.421875 C 23.789062 47.34375 25.679688 45.261719 25.601562 42.777344 C 25.523438 40.375 23.550781 38.453125 21.183594 38.453125 L 21.027344 38.453125 C 20.867188 38.453125 20.632812 38.453125 20.472656 38.53125 C 17.238281 33.085938 15.898438 27.15625 16.371094 20.75 C 16.6875 15.941406 18.265625 11.777344 21.027344 8.332031 C 23.3125 5.367188 27.730469 3.925781 30.730469 3.847656 C 39.09375 3.6875 42.644531 14.261719 42.878906 18.507812 C 43.90625 18.746094 45.640625 19.308594 46.824219 19.707031 C 45.878906 6.730469 37.988281 0.00390625 30.414062 0.00390625 C 23.3125 0.00390625 16.765625 5.210938 14.160156 12.898438 C 10.53125 23.152344 12.898438 33.003906 17.316406 40.773438 C 16.921875 41.335938 16.6875 42.21875 16.765625 43.097656 Z M 16.765625 43.097656 "/>
</g>
</svg>
